# xmcd
#
# Track frame offsets:
# 182
# 13662
# 28497
# 42995
# 55885
# 71352
# 85105
# 99090
# 116955
# 133025
# 148622
#
# Disc length: 2189 seconds
#
#
# Revision: 3
# Processed by: cddbd v1.5.1PL2 Copyright (c) Steve Scherf et al.
# Submitted via: FreeRIP 2.944 
#
DISCID=97088b0b
DTITLE=Billy Joe Royal - Tell It Like It Is
DYEAR=1989
DGENRE=Country
TTITLE0=Tell It Like It Is
TTITLE1=Kiss and Say Goodnight
TTITLE2=Slip Away
TTITLE3=He Don't Know
TTITLE4=Cross My Heart and Hope to Try
TTITLE5=Love Has No Right
TTITLE6=The Truth Is I Lied
TTITLE7=Till I Can't Take It Anymore
TTITLE8=Ii Was Losing You
TTITLE9=What's the Matter Baby
TTITLE10=Love Is A Fulltime Job
EXTD=
EXTT0=
EXTT1=
EXTT2=
EXTT3=
EXTT4=
EXTT5=
EXTT6=
EXTT7=
EXTT8=
EXTT9=
EXTT10=
PLAYORDER=
